REM DIRINDEX 1\2,1\3,1\4,1\5,1\6
REM DIRNAME folder01,folder02,folder03,folder04,folder05,folder06
TITLE ""
FILE "Disc6Track07.mp3" MP3
  TRACK 01 AUDIO
    TITLE "3:cjc030_10558"
    INDEX 01 00:00:00
  TRACK 02 AUDIO
    TITLE "0:"
    INDEX 01 00:00:64
  TRACK 03 AUDIO
    TITLE "4:cjc030_10559"
    INDEX 01 00:01:01
  TRACK 04 AUDIO
    TITLE "0:"
    INDEX 01 00:03:64
  TRACK 05 AUDIO
    TITLE "5:cjc030_10560"
    INDEX 01 00:03:74
  TRACK 06 AUDIO
    TITLE "0:"
    INDEX 01 00:04:72
  TRACK 07 AUDIO
    TITLE "6:cjc030_10561"
    INDEX 01 00:05:07
  TRACK 08 AUDIO
    TITLE "0:"
    INDEX 01 00:06:67
  TRACK 09 AUDIO
    TITLE "3:cjc030_10562"
    INDEX 01 00:07:39
  TRACK 10 AUDIO
    TITLE "0:"
    INDEX 01 00:08:54
  TRACK 11 AUDIO
    TITLE "4:cjc030_10563"
    INDEX 01 00:08:64
  TRACK 12 AUDIO
    TITLE "0:"
    INDEX 01 00:09:61
  TRACK 13 AUDIO
    TITLE "5:cjc030_10564"
    INDEX 01 00:09:71
  TRACK 14 AUDIO
    TITLE "0:"
    INDEX 01 00:11:11
  TRACK 15 AUDIO
    TITLE "6:cjc030_10565"
    INDEX 01 00:11:21
  TRACK 16 AUDIO
    TITLE "0:"
    INDEX 01 00:13:26
  TRACK 17 AUDIO
    TITLE "3:cjc030_10566"
    INDEX 01 00:14:00
  TRACK 18 AUDIO
    TITLE "0:"
    INDEX 01 00:15:05
  TRACK 19 AUDIO
    TITLE "4:cjc030_10567"
    INDEX 01 00:15:17
  TRACK 20 AUDIO
    TITLE "0:"
    INDEX 01 00:16:28
  TRACK 21 AUDIO
    TITLE "5:cjc030_10568"
    INDEX 01 00:16:38
  TRACK 22 AUDIO
    TITLE "0:"
    INDEX 01 00:17:45
  TRACK 23 AUDIO
    TITLE "6:cjc030_10569"
    INDEX 01 00:17:55
  TRACK 24 AUDIO
    TITLE "0:"
    INDEX 01 00:19:30
  TRACK 25 AUDIO
    TITLE "3:cjc030_10570"
    INDEX 01 00:20:02
  TRACK 26 AUDIO
    TITLE "0:"
    INDEX 01 00:21:09
  TRACK 27 AUDIO
    TITLE "4:cjc030_10571"
    INDEX 01 00:21:21
  TRACK 28 AUDIO
    TITLE "0:"
    INDEX 01 00:24:02
  TRACK 29 AUDIO
    TITLE "5:cjc030_10572"
    INDEX 01 00:24:12
  TRACK 30 AUDIO
    TITLE "0:"
    INDEX 01 00:25:21
  TRACK 31 AUDIO
    TITLE "3:cjc030_10573"
    INDEX 01 00:26:01
  TRACK 32 AUDIO
    TITLE "0:"
    INDEX 01 00:27:08
  TRACK 33 AUDIO
    TITLE "4:cjc030_10574"
    INDEX 01 00:27:18
  TRACK 34 AUDIO
    TITLE "0:"
    INDEX 01 00:28:19
  TRACK 35 AUDIO
    TITLE "5:cjc030_10575"
    INDEX 01 00:28:29
  TRACK 36 AUDIO
    TITLE "0:"
    INDEX 01 00:29:36
  TRACK 37 AUDIO
    TITLE "6:cjc030_10576"
    INDEX 01 00:29:48
  TRACK 38 AUDIO
    TITLE "0:"
    INDEX 01 00:31:37
  TRACK 39 AUDIO
    TITLE "3:cjc030_10577"
    INDEX 01 00:32:09
  TRACK 40 AUDIO
    TITLE "0:"
    INDEX 01 00:33:05
  TRACK 41 AUDIO
    TITLE "4:cjc030_10578"
    INDEX 01 00:33:13
  TRACK 42 AUDIO
    TITLE "0:"
    INDEX 01 00:35:08
  TRACK 43 AUDIO
    TITLE "5:cjc030_10579"
    INDEX 01 00:35:17
  TRACK 44 AUDIO
    TITLE "0:"
    INDEX 01 00:36:13
  TRACK 45 AUDIO
    TITLE "6:cjc030_10580"
    INDEX 01 00:36:25
  TRACK 46 AUDIO
    TITLE "0:"
    INDEX 01 00:37:67
  TRACK 47 AUDIO
    TITLE "3:cjc030_10581"
    INDEX 01 00:38:37
  TRACK 48 AUDIO
    TITLE "0:"
    INDEX 01 00:39:52
  TRACK 49 AUDIO
    TITLE "4:cjc030_10582"
    INDEX 01 00:39:62
  TRACK 50 AUDIO
    TITLE "0:"
    INDEX 01 00:42:06
  TRACK 51 AUDIO
    TITLE "5:cjc030_10583"
    INDEX 01 00:42:12
  TRACK 52 AUDIO
    TITLE "0:"
    INDEX 01 00:43:31
  TRACK 53 AUDIO
    TITLE "3:cjc030_10584"
    INDEX 01 00:44:05
  TRACK 54 AUDIO
    TITLE "0:"
    INDEX 01 00:45:04
  TRACK 55 AUDIO
    TITLE "4:cjc030_10585"
    INDEX 01 00:45:14
  TRACK 56 AUDIO
    TITLE "0:"
    INDEX 01 00:46:64
  TRACK 57 AUDIO
    TITLE "5:cjc030_10586"
    INDEX 01 00:46:74
  TRACK 58 AUDIO
    TITLE "0:"
    INDEX 01 00:47:72
  TRACK 59 AUDIO
    TITLE "6:cjc030_10587"
    INDEX 01 00:48:08
  TRACK 60 AUDIO
    TITLE "0:"
    INDEX 01 00:50:13
  TRACK 61 AUDIO
    TITLE "3:cjc030_10588"
    INDEX 01 00:50:60
  TRACK 62 AUDIO
    TITLE "0:"
    INDEX 01 00:51:52
  TRACK 63 AUDIO
    TITLE "4:cjc030_10589"
    INDEX 01 00:51:63
  TRACK 64 AUDIO
    TITLE "0:"
    INDEX 01 00:52:47
  TRACK 65 AUDIO
    TITLE "5:cjc030_10590"
    INDEX 01 00:52:59
  TRACK 66 AUDIO
    TITLE "0:"
    INDEX 01 00:53:49
  TRACK 67 AUDIO
    TITLE "6:cjc030_10591"
    INDEX 01 00:53:58
  TRACK 68 AUDIO
    TITLE "0:"
    INDEX 01 00:55:26
  TRACK 69 AUDIO
    TITLE "3:cjc030_10592"
    INDEX 01 00:55:73
  TRACK 70 AUDIO
    TITLE "0:"
    INDEX 01 00:57:03
  TRACK 71 AUDIO
    TITLE "4:cjc030_10593"
    INDEX 01 00:57:17
  TRACK 72 AUDIO
    TITLE "0:"
    INDEX 01 00:58:07
  TRACK 73 AUDIO
    TITLE "5:cjc030_10594"
    INDEX 01 00:58:15
  TRACK 74 AUDIO
    TITLE "0:"
    INDEX 01 00:59:26
  TRACK 75 AUDIO
    TITLE "6:cjc030_10595"
    INDEX 01 00:59:36
  TRACK 76 AUDIO
    TITLE "0:"
    INDEX 01 01:01:21
  TRACK 77 AUDIO
    TITLE "3:cjc030_10596"
    INDEX 01 01:01:70
  TRACK 78 AUDIO
    TITLE "0:"
    INDEX 01 01:02:61
  TRACK 79 AUDIO
    TITLE "4:cjc030_10597"
    INDEX 01 01:02:73
  TRACK 80 AUDIO
    TITLE "0:"
    INDEX 01 01:04:25
  TRACK 81 AUDIO
    TITLE "5:cjc030_10598"
    INDEX 01 01:04:35
  TRACK 82 AUDIO
    TITLE "0:"
    INDEX 01 01:05:26
  TRACK 83 AUDIO
    TITLE "6:cjc030_10599"
    INDEX 01 01:05:40
  TRACK 84 AUDIO
    TITLE "0:"
    INDEX 01 01:09:67
  TRACK 85 AUDIO
    TITLE "3:cjc030_10600"
    INDEX 01 01:10:39
  TRACK 86 AUDIO
    TITLE "0:"
    INDEX 01 01:11:45
  TRACK 87 AUDIO
    TITLE "4:cjc030_10601"
    INDEX 01 01:11:56
  TRACK 88 AUDIO
    TITLE "0:"
    INDEX 01 01:14:23
  TRACK 89 AUDIO
    TITLE "5:cjc030_10602"
    INDEX 01 01:14:33
  TRACK 90 AUDIO
    TITLE "0:"
    INDEX 01 01:15:39
  TRACK 91 AUDIO
    TITLE "6:cjc030_10603"
    INDEX 01 01:15:48
  TRACK 92 AUDIO
    TITLE "0:"
    INDEX 01 01:18:29
  TRACK 93 AUDIO
    TITLE "3:cjc030_10604"
    INDEX 01 01:19:03
  TRACK 94 AUDIO
    TITLE "0:"
    INDEX 01 01:20:12
  TRACK 95 AUDIO
    TITLE "4:cjc030_10605"
    INDEX 01 01:20:22
  TRACK 96 AUDIO
    TITLE "0:"
    INDEX 01 01:24:45
  TRACK 97 AUDIO
    TITLE "5:cjc030_10606"
    INDEX 01 01:24:53
  TRACK 98 AUDIO
    TITLE "0:"
    INDEX 01 01:25:64
  TRACK 99 AUDIO
    TITLE "6:cjc030_10607"
    INDEX 01 01:26:01
  TRACK 100 AUDIO
    TITLE "0:"
    INDEX 01 01:31:38
  TRACK 101 AUDIO
    TITLE "3:cjc030_10608"
    INDEX 01 01:32:10
  TRACK 102 AUDIO
    TITLE "0:"
    INDEX 01 01:33:17
  TRACK 103 AUDIO
    TITLE "4:cjc030_10609"
    INDEX 01 01:33:27
  TRACK 104 AUDIO
    TITLE "0:"
    INDEX 01 01:35:24
  TRACK 105 AUDIO
    TITLE "5:cjc030_10610"
    INDEX 01 01:35:31
  TRACK 106 AUDIO
    TITLE "0:"
    INDEX 01 01:36:39
  TRACK 107 AUDIO
    TITLE "3:cjc030_10611"
    INDEX 01 01:37:21
  TRACK 108 AUDIO
    TITLE "0:"
    INDEX 01 01:38:24
  TRACK 109 AUDIO
    TITLE "4:cjc030_10612"
    INDEX 01 01:38:34
  TRACK 110 AUDIO
    TITLE "0:"
    INDEX 01 01:41:50
  TRACK 111 AUDIO
    TITLE "5:cjc030_10613"
    INDEX 01 01:41:57
  TRACK 112 AUDIO
    TITLE "0:"
    INDEX 01 01:42:63
  TRACK 113 AUDIO
    TITLE "6:cjc030_10614"
    INDEX 01 01:43:00
  TRACK 114 AUDIO
    TITLE "0:"
    INDEX 01 01:44:54
  TRACK 115 AUDIO
    TITLE "3:cjc030_10615"
    INDEX 01 01:45:26
  TRACK 116 AUDIO
    TITLE "0:"
    INDEX 01 01:46:33
  TRACK 117 AUDIO
    TITLE "4:cjc030_10616"
    INDEX 01 01:46:43
  TRACK 118 AUDIO
    TITLE "0:"
    INDEX 01 01:48:52
  TRACK 119 AUDIO
    TITLE "5:cjc030_10617"
    INDEX 01 01:48:60
  TRACK 120 AUDIO
    TITLE "0:"
    INDEX 01 01:49:69
  TRACK 121 AUDIO
    TITLE "6:cjc030_10618"
    INDEX 01 01:50:04
  TRACK 122 AUDIO
    TITLE "0:"
    INDEX 01 01:53:51
